<?xml version="1.0" encoding="UTF-8"?>
<!DOCTYPE svg PUBLIC "-//W3C//DTD SVG 1.1//EN" "http://www.w3.org/Graphics/SVG/1.1/DTD/svg11.dtd">
<!-- Creator: CorelDRAW -->
<svg xmlns="http://www.w3.org/2000/svg" xml:space="preserve" width="30in" height="11in" style="shape-rendering:geometricPrecision; text-rendering:geometricPrecision; image-rendering:optimizeQuality; fill-rule:evenodd; clip-rule:evenodd"
viewBox="0 0 30 11"
 xmlns:xlink="http://www.w3.org/1999/xlink">
 <defs>
  <style type="text/css">
   <![CDATA[
    .str0 {stroke:#1F1A17;stroke-width:0.22222}
    .fil1 {fill:none;fill-rule:nonzero}
    .fil0 {fill:#1F1A17;fill-rule:nonzero}
   ]]>
  </style>
 </defs>
 <g id="Layer_x0020_1">
  <metadata id="CorelCorpID_0Corel-Layer"/>
  <g id="_74696544">
   <path id="_74696784" class="fil0" d="M5.14859 1.3108l1.14386 0 1.95275 2.78612c0.147043,0.212421 0.295488,0.43439 0.44526,0.665902 0.149811,0.23148 0.27102,0.434394 0.363594,0.608669 -0.0272362,-0.305 -0.0435591,-0.58689 -0.0490157,-0.845634 -0.00544882,-0.258713 -0.0109055,-0.540602 -0.0163268,-0.845634l-0.0163583 -2.36941 1.18472 0 0 5.79283 -1.12753 0 -2.01808 -2.86782c-0.141626,-0.201547 -0.275075,-0.393555 -0.400343,-0.576016 -0.125295,-0.182465 -0.250563,-0.377193 -0.375862,-0.584197 0.0109094,0.228783 0.021815,0.44802 0.032689,0.65772 0.0109055,0.209728 0.0190551,0.428969 0.0245079,0.65772l0.0571929 2.71259 -1.20105 0 0 -5.79283 -1.1811e-005 3.93701e-006zm6.09513 2.21419l1.16022 0 0 1.83836c0,0.125264 0.00951575,0.242382 0.0286024,0.351319 0.0190512,0.108941 0.0531024,0.202878 0.102118,0.281894 0.0490157,0.0789764 0.117118,0.141591 0.204244,0.187913 0.0871575,0.0462874 0.198823,0.0694331 0.334996,0.0694331 0.136173,0 0.246476,-0.0245079 0.330902,-0.0735236 0.0844331,-0.0490157 0.148449,-0.11439 0.192008,-0.196094 0.043563,-0.0817087 0.0735236,-0.172953 0.0898858,-0.273709 0.0163307,-0.10076 0.0245079,-0.205606 0.0245079,-0.314583l0 -1.871 1.16018 0 0 1.871c0,0.305039 -0.0245079,0.566512 -0.0735236,0.784386 -0.0490157,0.217878 -0.157953,0.40852 -0.326815,0.571925 -0.174315,0.174283 -0.386736,0.298217 -0.637303,0.37174 -0.250535,0.0735591 -0.50928,0.110303 -0.776173,0.110303 -0.283252,0 -0.547417,-0.0421969 -0.792528,-0.126626 -0.245114,-0.0844331 -0.462992,-0.221969 -0.653634,-0.412614 -0.130748,-0.130717 -0.224693,-0.298217 -0.28189,-0.502492 -0.0571929,-0.204244 -0.0857953,-0.469768 -0.0857953,-0.796622l0 -1.871 0 -1.1811e-005zm4.52644 0l1.15203 0 0 0.563748c0.103488,-0.196063 0.239657,-0.35678 0.40852,-0.482043 0.168862,-0.125264 0.403063,-0.182461 0.70265,-0.171587l0 1.16836c-0.125268,-0.0817008 -0.283256,-0.122539 -0.473898,-0.122539 -0.196059,0 -0.348598,0.0830669 -0.457531,0.249201 -0.108941,0.166142 -0.163413,0.437122 -0.163413,0.812949l0 1.56056 -1.16836 0 0 -3.57865 0 3.93701e-006zm2.31221 0l1.30726 0 0.686315 1.74846c0.0435984,0.103484 0.0885236,0.228783 0.134811,0.375831 0.0463228,0.147083 0.0885236,0.291437 0.126661,0.433028 0.0326929,-0.141591 0.0708031,-0.283217 0.114398,-0.424843 0.0435591,-0.141634 0.0925748,-0.28326 0.147047,-0.424886l0.637299 -1.7076 1.27457 0 -1.58506 3.57865 -1.26639 0 -1.57691 -3.57865 7.87402e-006 3.93701e-006zm5.49056 -0.645449c-0.0980669,0 -0.189276,-0.0190866 -0.273709,-0.0571969 -0.0844291,-0.0381417 -0.157953,-0.0885236 -0.220606,-0.151169 -0.0626457,-0.0626181 -0.113028,-0.136177 -0.151169,-0.220606 -0.0381063,-0.0844291 -0.0571614,-0.175642 -0.0571614,-0.273709 0,-0.0980315 0.0190551,-0.18928 0.0571614,-0.273709 0.0381417,-0.0844331 0.0885236,-0.157957 0.151169,-0.220606 0.0626535,-0.0626181 0.136177,-0.112992 0.220606,-0.151134 0.0844331,-0.0381457 0.175642,-0.0571969 0.273709,-0.0571969 0.0980315,0 0.18928,0.0190512 0.273709,0.0571969 0.0844331,0.0381417 0.157957,0.0885157 0.220606,0.151134 0.0626181,0.0626496 0.113028,0.136173 0.151138,0.220606 0.0381417,0.0844291 0.0571929,0.175677 0.0571929,0.273709 0,0.0980669 -0.0190512,0.18928 -0.0571929,0.273709 -0.0381102,0.0844291 -0.0885197,0.157988 -0.151138,0.220606 -0.0626496,0.0626457 -0.136173,0.113028 -0.220606,0.151169 -0.0844291,0.0381102 -0.175677,0.0571969 -0.273709,0.0571969zm-0.580106 0.645449l1.16021 0 0 3.57865 -1.16021 0 0 -3.57865zm2.11615 -2.541l1.16018 0 0 6.11965 -1.16018 0 0 -6.11965z"/>
   <line id="_74696712" class="fil1 str0" x1="5.16563" y1="7.9393" x2="26.2963" y2= "7.9393" />
   <path id="_74696640" class="fil0" d="M5.14297 9.23816l0.325654 0c0.0703228,0 0.131063,0.00865748 0.182256,0.0259094 0.0512008,0.0172795 0.0940472,0.0413425 0.128575,0.0721575 0.0345669,0.0308465 0.0601614,0.0675591 0.0767953,0.110098 0.0166732,0.0425709 0.0249882,0.0891339 0.0249882,0.139717 0,0.096189 -0.0299291,0.176701 -0.089748,0.241429 -0.0598228,0.0647638 -0.148311,0.104543 -0.2655,0.11937l0.427406 0.603185 -0.20537 0 -0.395972 -0.58839 -0.0425394 0 0 0.58839 -0.166543 0 0 -1.31187 0 3.93701e-006zm0.266449 0.579154c0.108528,0 0.18563,-0.019122 0.231276,-0.0573661 0.0456378,-0.0382441 0.0684724,-0.0912795 0.0684724,-0.15911 0,-0.0308504 -0.00401969,-0.0598228 -0.0120276,-0.0869528 -0.00800787,-0.0271654 -0.0219173,-0.0502795 -0.0416535,-0.0694016 -0.0197362,-0.019122 -0.046563,-0.0342244 -0.0804803,-0.0453307 -0.0339134,-0.0111142 -0.0767953,-0.0166732 -0.128602,-0.0166732l-0.13689 0 0 0.434835 0.0999055 0zm1.31739 0.616138c-0.0271339,0.0407008 -0.0647638,0.0730787 -0.112858,0.0971457 -0.0481299,0.024063 -0.101776,0.0360945 -0.160984,0.0360945 -0.056752,0 -0.109488,-0.0104961 -0.158197,-0.0314606 -0.0487402,-0.0209646 -0.0912835,-0.0499724 -0.127685,-0.0869882 -0.0363701,-0.0369803 -0.0647283,-0.0807795 -0.0851102,-0.131366 -0.0203504,-0.0505472 -0.0305079,-0.105461 -0.0305079,-0.164669 0,-0.0604331 0.0104646,-0.116878 0.0314606,-0.169307 0.0209646,-0.0524173 0.0496299,-0.0977559 0.0860315,-0.136 0.0363701,-0.0382126 0.0789449,-0.0684449 0.127654,-0.0906299 0.0487441,-0.0222283 0.100858,-0.0333425 0.156354,-0.0333425 0.0555236,0 0.107028,0.0111142 0.154512,0.0333425 0.0474803,0.022185 0.0872598,0.0542598 0.119331,0.096189l0 -0.112862 0.153591 0 0 0.810429 -0.153591 0 0 -0.116575zm-0.253492 -0.00184252c0.0394685,0 0.0752598,-0.00708661 0.107331,-0.0212677 0.0320748,-0.0142126 0.0598228,-0.0339488 0.0832402,-0.0592087 0.0234488,-0.0252913 0.0413465,-0.0555236 0.053685,-0.0906654 0.0123386,-0.0351811 0.0184724,-0.0737323 0.0184724,-0.115654 0,-0.0875669 -0.0246417,-0.157272 -0.074,-0.209087 -0.0493228,-0.0518071 -0.11224,-0.0777165 -0.188728,-0.0777165 -0.0369882,0 -0.0715512,0.00740157 -0.103626,0.0222283 -0.0320354,0.0147913 -0.060122,0.0351378 -0.0841575,0.0610472 -0.0240669,0.0259055 -0.0428819,0.0564449 -0.0564449,0.0915866 -0.0135669,0.0351457 -0.0203504,0.0724685 -0.0203504,0.111941 0,0.0394724 0.00678346,0.0767953 0.0203504,0.111937 0.013563,0.0351732 0.032378,0.0656811 0.0564449,0.0915906 0.0240354,0.0259016 0.052122,0.046252 0.0841575,0.0610433 0.0320748,0.0148307 0.0666378,0.0222244 0.103626,0.0222244zm0.0203465 -1.18606l0.247941 0.240543 -0.0832402 0.0814291 -0.166539 -0.157272 -0.175783 0.159114 -0.0813976 -0.0777165 0.25902 -0.246098zm0.664268 0.494039l0.142476 0 0 0.109177c0.022189,-0.0357874 0.0545748,-0.065374 0.0971457,-0.0888307 0.0425394,-0.0234134 0.089748,-0.0351378 0.141555,-0.0351378 0.0592087,0 0.106996,0.0114173 0.14337,0.0342205 0.0364016,0.0228386 0.0650669,0.0533465 0.0860669,0.0915906 0.0283583,-0.0357559 0.0647598,-0.065685 0.109138,-0.089752 0.0444173,-0.0240276 0.0962283,-0.0360591 0.155433,-0.0360591 0.0814331,0 0.146161,0.0252874 0.194291,0.0758386 0.0480945,0.0505866 0.0721614,0.130756 0.0721614,0.240543l0 0.508839 -0.151717 0 0 -0.486614c0,-0.0703189 -0.0120315,-0.122126 -0.0360984,-0.155429 -0.024063,-0.0333031 -0.0625787,-0.0499724 -0.115654,-0.0499724 -0.0554921,0 -0.10113,0.0206575 -0.136925,0.0620039 -0.0357559,0.041315 -0.0536496,0.0946575 -0.0536496,0.160031l0 0.46998 -0.153555 0 0 -0.488488c0,-0.0702874 -0.0117283,-0.121787 -0.0351811,-0.154476 -0.0234134,-0.032685 -0.0616575,-0.0490512 -0.114697,-0.0490512 -0.0283583,0 -0.0539567,0.00555906 -0.0767953,0.0166693 -0.0227992,0.0110748 -0.0428425,0.0268268 -0.0601299,0.0471772 -0.0172795,0.0203504 -0.0305354,0.0444134 -0.0397717,0.0721575 -0.00927165,0.0277441 -0.013874,0.0582874 -0.013874,0.0915906l0 0.464421 -0.153591 0 0 -0.810429zm1.41916 0l0.148035 0 0 0.107299c0.0246772,-0.0332992 0.0582874,-0.0619646 0.100827,-0.0860315 0.0425709,-0.0240276 0.0934646,-0.0360591 0.152673,-0.0360591 0.0937323,0 0.166508,0.0252874 0.218315,0.0758386 0.051815,0.0505866 0.0777165,0.130756 0.0777165,0.240543l0 0.508839 -0.153591 0 0 -0.486614c0,-0.0703189 -0.0141772,-0.122126 -0.0425394,-0.155429 -0.0283583,-0.0333031 -0.0715433,-0.0499724 -0.129524,-0.0499724 -0.0295866,0 -0.0576732,0.00555906 -0.0841929,0.0166693 -0.0265197,0.0110748 -0.049626,0.0268268 -0.0693622,0.0471772 -0.0197362,0.0203504 -0.0354882,0.0444134 -0.0472087,0.0721575 -0.0116929,0.0277441 -0.0175591,0.0582874 -0.0175591,0.0915906l0 0.464421 -0.153591 0 0 -0.810429zm1.05097 -0.223874c-0.0308504,0 -0.0570591,-0.0108071 -0.0786378,-0.0323819 -0.0216102,-0.0215787 -0.0323819,-0.0477874 -0.0323819,-0.0786378 0,-0.0308465 0.0107717,-0.0570591 0.0323819,-0.0786378 0.0215787,-0.0216102 0.0477874,-0.032378 0.0786378,-0.032378 0.0308425,0 0.0570591,0.0107677 0.0786378,0.032378 0.0215709,0.0215787 0.032378,0.0477913 0.032378,0.0786378 0,0.0308504 -0.0108071,0.0570591 -0.032378,0.0786378 -0.0215787,0.0215748 -0.0477953,0.0323819 -0.0786378,0.0323819zm-0.075874 0.223874l0.153591 0 0 0.810429 -0.153591 0 0 -0.810429zm1.03062 0.780811c-0.0320748,0.0148268 -0.0681732,0.0262126 -0.10826,0.0342559 -0.0400827,0.00800787 -0.0798622,0.0120315 -0.119331,0.0120315 -0.0703189,0 -0.132287,-0.0123386 -0.185937,-0.0370157 -0.053689,-0.0246811 -0.098374,-0.0564449 -0.134161,-0.0953031 -0.0357598,-0.0388583 -0.0625866,-0.0829331 -0.0804803,-0.132291 -0.0178937,-0.0493228 -0.0268228,-0.0992874 -0.0268228,-0.149874 0,-0.0592047 0.0110787,-0.114697 0.0332992,-0.166508 0.022189,-0.051811 0.0527323,-0.0971457 0.0915906,-0.136004 0.0388583,-0.0388583 0.0851102,-0.0693976 0.13876,-0.0915866 0.0536535,-0.0222244 0.111941,-0.0333031 0.174862,-0.0333031 0.0382441,0 0.0755354,0.00398819 0.111941,0.0120354 0.0363661,0.00800787 0.070622,0.0187795 0.102697,0.032378l0 0.155398c-0.0320748,-0.017248 -0.0659882,-0.0311181 -0.101776,-0.0416181 -0.0357598,-0.0104961 -0.0733898,-0.0157165 -0.112862,-0.0157165 -0.0406969,0 -0.0777165,0.00739764 -0.111016,0.0221929 -0.0333031,0.0147913 -0.0620039,0.0345276 -0.0860315,0.0592087 -0.0240669,0.0246732 -0.0425748,0.0539528 -0.0555315,0.087874 -0.0129488,0.0339449 -0.0194291,0.0693976 -0.0194291,0.106413 0,0.0369843 0.00648031,0.0721575 0.0194291,0.105461 0.0129567,0.0332992 0.0314646,0.0625787 0.0555315,0.087874 0.0240276,0.0252913 0.0527283,0.0453346 0.0860315,0.0601654 0.0332992,0.0147913 0.0703189,0.022185 0.111016,0.022185 0.0345315,0 0.0709331,-0.00432677 0.109177,-0.0129488 0.0382087,-0.00862992 0.074,-0.0228386 0.107303,-0.0425748l0 0.157272zm0.222035 -0.780811l0.153591 0 0 0.431118c0,0.0357559 0.00245669,0.0694016 0.0073937,0.100831 0.00494488,0.0314567 0.0144921,0.0588937 0.0286693,0.0823465 0.0141811,0.0234567 0.034563,0.0422362 0.0610827,0.0564488 0.0265157,0.0141811 0.0613543,0.0212677 0.104539,0.0212677 0.0419291,0 0.0758386,-0.00770079 0.101748,-0.0231457 0.0259055,-0.0154055 0.0456417,-0.0354488 0.0592087,-0.060122 0.013563,-0.0246811 0.0225276,-0.052122 0.0268228,-0.0823228 0.00432677,-0.0302323 0.00647638,-0.0601614 0.00647638,-0.089748l0 -0.436673 0.153591 0 0 0.425567c0,0.0518071 -0.00494094,0.101776 -0.0147913,0.14987 -0.00988583,0.0480945 -0.0280866,0.0909803 -0.0546024,0.12861 -0.0265236,0.0375945 -0.0628937,0.0675236 -0.109181,0.0897126 -0.046252,0.0222205 -0.105154,0.0333346 -0.176701,0.0333346 -0.0702874,0 -0.127961,-0.0111142 -0.172984,-0.0333346 -0.0450276,-0.022189 -0.0804803,-0.0508543 -0.106382,-0.0860354 -0.0259055,-0.0351417 -0.0438031,-0.0752283 -0.053685,-0.120252 -0.00985039,-0.0450315 -0.0147953,-0.0909764 -0.0147953,-0.137846l0 -0.449626zm1.37106 -0.501437l0.181343 0 0.307146 0.810429c0.00616929,0.0172795 0.0144843,0.0403858 0.0249843,0.0693937 0.0104646,0.0289724 0.0206535,0.0576732 0.0305079,0.0860315 0.0123386,0.0333071 0.0252913,0.0684803 0.0388543,0.105469 0.0123425,-0.0357598 0.0246811,-0.0703228 0.0370197,-0.103626 0.00988583,-0.0283583 0.0203504,-0.0570236 0.0314606,-0.0860315 0.0111142,-0.0289724 0.0197362,-0.0521142 0.0259055,-0.0693661l0.308988 -0.812299 0.17578 0 -0.51439 1.31187 -0.13876 0 -0.508839 -1.31187zm1.95019 1.19529c-0.0271339,0.0407008 -0.0647638,0.0730787 -0.112858,0.0971457 -0.0481299,0.024063 -0.101783,0.0360945 -0.160992,0.0360945 -0.056752,0 -0.10948,-0.0105 -0.158189,-0.0314606 -0.0487402,-0.0209646 -0.0912835,-0.0499724 -0.127685,-0.0869882 -0.036374,-0.0369843 -0.0647323,-0.0807795 -0.0851102,-0.131366 -0.0203504,-0.0505512 -0.0305079,-0.105461 -0.0305079,-0.164669 0,-0.0604331 0.0104646,-0.116882 0.0314567,-0.169307 0.0209646,-0.0524213 0.0496299,-0.0977598 0.0860354,-0.136004 0.0363701,-0.0382087 0.0789409,-0.0684409 0.12765,-0.0906299 0.0487441,-0.0222244 0.100862,-0.0333386 0.15635,-0.0333386 0.0555276,0 0.107031,0.0111142 0.154512,0.0333386 0.0474843,0.022189 0.0872598,0.0542638 0.119339,0.096189l0 -0.112858 0.153591 0 0 0.810429 -0.153591 0 0 -0.116575zm-0.2535 -0.00184252c0.0394724,0 0.0752638,-0.00708661 0.107339,-0.0212677 0.0320748,-0.0142126 0.0598228,-0.0339488 0.0832362,-0.0592087 0.0234528,-0.0252913 0.0413465,-0.0555276 0.053689,-0.0906654 0.0123386,-0.0351811 0.0184724,-0.0737323 0.0184724,-0.115654 0,-0.0875669 -0.0246457,-0.157276 -0.074,-0.209087 -0.0493228,-0.0518071 -0.112248,-0.0777165 -0.188736,-0.0777165 -0.0369803,0 -0.0715433,0.00740157 -0.103618,0.0222244 -0.0320433,0.0147913 -0.0601299,0.0351417 -0.0841614,0.0610512 -0.024063,0.0259055 -0.042878,0.0564449 -0.0564449,0.0915866 -0.013563,0.0351457 -0.0203504,0.0724685 -0.0203504,0.111941 0,0.0394724 0.0067874,0.0767953 0.0203504,0.111937 0.0135669,0.0351732 0.0323819,0.0656811 0.0564449,0.0915906 0.0240315,0.0259016 0.0521181,0.046252 0.0841614,0.0610433 0.0320748,0.0148307 0.0666378,0.0222244 0.103618,0.0222244zm0.0203504 -1.18605l0.247941 0.240543 -0.0832362 0.0814291 -0.166547 -0.157272 -0.17578 0.159114 -0.0813937 -0.0777165 0.259016 -0.246098zm0.664264 -0.0813976l0.153591 0 0 1.38587 -0.153591 0 0 -1.38587zm1.03063 1.35624c-0.0320787,0.0148268 -0.0681732,0.0262087 -0.10826,0.0342559 -0.0400866,0.00800787 -0.0798622,0.0120315 -0.119335,0.0120315 -0.0703189,0 -0.132287,-0.0123386 -0.185937,-0.0370157 -0.053689,-0.0246811 -0.0983701,-0.0564449 -0.134165,-0.0953031 -0.0357559,-0.0388583 -0.0625787,-0.0829331 -0.0804724,-0.132291 -0.0178937,-0.0493228 -0.0268307,-0.0992874 -0.0268307,-0.149874 0,-0.0592087 0.0110787,-0.114697 0.0333031,-0.166508 0.0221929,-0.051815 0.0527362,-0.0971457 0.0915945,-0.136004 0.0388543,-0.0388583 0.0851102,-0.0694016 0.13876,-0.0915866 0.0536535,-0.0222244 0.111941,-0.0333031 0.174858,-0.0333031 0.0382441,0 0.0755354,0.00398819 0.111941,0.0120315 0.0363701,0.00801181 0.070622,0.0187835 0.102701,0.032378l0 0.155398c-0.0320787,-0.0172441 -0.0659882,-0.0311142 -0.10178,-0.0416142 -0.0357598,-0.0105 -0.0733898,-0.0157165 -0.112862,-0.0157165 -0.0406969,0 -0.0777165,0.00739764 -0.111012,0.0221929 -0.0333071,0.0147913 -0.0620079,0.0345236 -0.0860354,0.0592047 -0.0240669,0.0246772 -0.0425748,0.0539567 -0.0555276,0.087874 -0.0129488,0.0339488 -0.0194291,0.0694016 -0.0194291,0.106417 0,0.0369803 0.00648031,0.0721575 0.0194291,0.105461 0.0129528,0.0332992 0.0314606,0.0625787 0.0555276,0.087874 0.0240276,0.0252913 0.0527283,0.0453346 0.0860354,0.0601654 0.0332953,0.0147874 0.070315,0.022185 0.111012,0.022185 0.0345315,0 0.070937,-0.00432677 0.109181,-0.0129488 0.0382087,-0.00862992 0.0739961,-0.0228425 0.107303,-0.0425787l0 0.157276zm0.934394 -0.127654c-0.0480945,0.0592087 -0.101744,0.103008 -0.160953,0.131366 -0.0592087,0.0283622 -0.127685,0.0425748 -0.205402,0.0425748 -0.0592087,0 -0.113472,-0.00988583 -0.162827,-0.029622 -0.0493228,-0.0197362 -0.0915945,-0.0477874 -0.126732,-0.084189 -0.0351772,-0.036374 -0.0626142,-0.0804803 -0.0823504,-0.132291 -0.0197362,-0.0518071 -0.0295866,-0.109787 -0.0295866,-0.173941 0,-0.065374 0.0107717,-0.124276 0.032378,-0.176697 0.0215787,-0.0524252 0.0502441,-0.0968386 0.0860315,-0.133213 0.0357598,-0.0364016 0.0777165,-0.0644528 0.125811,-0.084189 0.0480945,-0.0197362 0.0986811,-0.029622 0.15172,-0.029622 0.056752,0 0.108559,0.00957874 0.155433,0.0287008 0.0468661,0.019122 0.0872598,0.0465591 0.121205,0.0823189 0.0339213,0.0357913 0.060437,0.0786732 0.0795591,0.128602 0.019122,0.0499724 0.0286654,0.105161 0.0286654,0.165591 0,0.0160591 -0.000307087,0.0283937 -0.00092126,0.0370236 -0.000614173,0.00862205 -0.00092126,0.0172795 -0.00092126,0.0259016l-0.618008 0c0.00125984,0.0345276 0.00865748,0.0666024 0.0222244,0.0962244 0.013563,0.0295866 0.0317638,0.055185 0.0545709,0.0767953 0.0228386,0.0215787 0.0493543,0.0385157 0.0795551,0.0508583 0.0302362,0.0123346 0.0632283,0.0185079 0.0989882,0.0185079 0.0518071,0 0.0987087,-0.0114213 0.140634,-0.0342244 0.0419291,-0.0228346 0.0771024,-0.0527283 0.105465,-0.0897441l0.105461 0.0832677zm-0.148 -0.325654c0,-0.0295866 -0.00525197,-0.0576732 -0.015748,-0.0841969 -0.0104646,-0.0265157 -0.0255984,-0.0496299 -0.0453346,-0.0693661 -0.0197362,-0.0197323 -0.0437677,-0.0354803 -0.0721614,-0.0472087 -0.0283583,-0.011685 -0.0604291,-0.0175512 -0.0962244,-0.0175512 -0.0332992,0 -0.0631929,0.00617323 -0.0897087,0.0185079 -0.0265236,0.0123071 -0.0496654,0.0286654 -0.0694016,0.0490157 -0.0197362,0.0203504 -0.0354528,0.0438031 -0.0471732,0.0703189 -0.0117283,0.0265197 -0.018815,0.0533425 -0.0212717,0.0804803l0.457024 0zm1.00284 0.366354c-0.0271299,0.0407008 -0.0647598,0.0730787 -0.112854,0.0971457 -0.0481299,0.024063 -0.101783,0.0360945 -0.160992,0.0360945 -0.056752,0 -0.10948,-0.0105 -0.158189,-0.0314606 -0.0487441,-0.0209646 -0.0912835,-0.0499724 -0.127685,-0.0869882 -0.0363701,-0.0369843 -0.0647323,-0.0807795 -0.0851142,-0.131366 -0.0203465,-0.0505512 -0.0305039,-0.105461 -0.0305039,-0.164669 0,-0.0604331 0.0104606,-0.116882 0.0314567,-0.169307 0.0209606,-0.0524213 0.0496299,-0.0977598 0.0860354,-0.136004 0.0363701,-0.0382087 0.0789409,-0.0684409 0.12765,-0.0906299 0.0487402,-0.0222244 0.100862,-0.0333386 0.15635,-0.0333386 0.0555276,0 0.107031,0.0111142 0.154512,0.0333386 0.0474803,0.022189 0.0872598,0.0542638 0.119335,0.096189l0 -0.112858 0.153591 0 0 0.810429 -0.153591 0 0 -0.116575zm-0.253496 -0.00184252c0.0394724,0 0.0752598,-0.00708661 0.107339,-0.0212677 0.0320748,-0.0142126 0.0598189,-0.0339488 0.0832323,-0.0592087 0.0234567,-0.0252913 0.0413504,-0.0555276 0.053689,-0.0906654 0.0123425,-0.0351811 0.0184764,-0.0737323 0.0184764,-0.115654 0,-0.0875669 -0.0246417,-0.157276 -0.074,-0.209087 -0.0493228,-0.0518071 -0.112248,-0.0777165 -0.188736,-0.0777165 -0.0369803,0 -0.0715433,0.00740157 -0.103618,0.0222244 -0.0320433,0.0147913 -0.0601299,0.0351417 -0.0841614,0.0610512 -0.024063,0.0259055 -0.042878,0.0564449 -0.0564449,0.0915866 -0.0135669,0.0351457 -0.0203504,0.0724685 -0.0203504,0.111941 0,0.0394724 0.00678346,0.0767953 0.0203504,0.111937 0.0135669,0.0351732 0.0323819,0.0656811 0.0564449,0.0915906 0.0240315,0.0259016 0.0521181,0.046252 0.0841614,0.0610433 0.0320748,0.0148307 0.0666378,0.0222244 0.103618,0.0222244zm2.39061 -1.0417l-0.323783 0 0 -0.151752 0.814106 0 0 0.151752 -0.32378 0 0 1.16011 -0.166543 0 0 -1.16011zm1.26374 1.04354c-0.0271339,0.0407008 -0.0647677,0.0730787 -0.112862,0.0971457 -0.0481299,0.024063 -0.101776,0.0360945 -0.160984,0.0360945 -0.056752,0 -0.109484,-0.0105 -0.158193,-0.0314606 -0.0487441,-0.0209646 -0.0912795,-0.0499724 -0.127689,-0.0869882 -0.0363661,-0.0369843 -0.0647283,-0.0807795 -0.0851102,-0.131366 -0.0203504,-0.0505512 -0.0305079,-0.105461 -0.0305079,-0.164669 0,-0.0604331 0.0104646,-0.116882 0.0314606,-0.169307 0.0209646,-0.0524213 0.0496299,-0.0977598 0.0860354,-0.136004 0.0363661,-0.0382087 0.0789409,-0.0684409 0.12765,-0.0906299 0.0487441,-0.0222244 0.100858,-0.0333386 0.156354,-0.0333386 0.0555236,0 0.107031,0.0111142 0.154512,0.0333386 0.0474803,0.022189 0.0872598,0.0542638 0.119335,0.096189l0 -0.112858 0.153591 0 0 0.810429 -0.153591 0 0 -0.116575zm-0.253496 -0.00184252c0.0394724,0 0.0752598,-0.00708661 0.107335,-0.0212677 0.0320748,-0.0142126 0.0598189,-0.0339488 0.0832362,-0.0592087 0.0234528,-0.0252913 0.0413504,-0.0555276 0.053685,-0.0906654 0.0123386,-0.0351811 0.0184764,-0.0737323 0.0184764,-0.115654 0,-0.0875669 -0.0246457,-0.157276 -0.0740039,-0.209087 -0.0493189,-0.0518071 -0.11224,-0.0777165 -0.188728,-0.0777165 -0.0369882,0 -0.0715472,0.00740157 -0.103626,0.0222244 -0.0320354,0.0147913 -0.060122,0.0351417 -0.0841575,0.0610512 -0.0240591,0.0259055 -0.042874,0.0564449 -0.0564449,0.0915866 -0.0135669,0.0351457 -0.0203504,0.0724685 -0.0203504,0.111941 0,0.0394724 0.00678346,0.0767953 0.0203504,0.111937 0.0135709,0.0351732 0.0323858,0.0656811 0.0564449,0.0915906 0.0240354,0.0259016 0.052122,0.046252 0.0841575,0.0610433 0.0320787,0.0148307 0.0666378,0.0222244 0.103626,0.0222244zm0.0203504 -1.18605l0.247937 0.240543 -0.0832362 0.0814291 -0.166543 -0.157272 -0.175783 0.159114 -0.0813976 -0.0777165 0.259024 -0.246098zm0.664264 0.494039l0.148035 0 0 0.125815c0.0246772,-0.0444173 0.0564094,-0.079252 0.0952677,-0.104547 0.0388583,-0.0252874 0.0860669,-0.037937 0.141559,-0.037937 0.0172795,0 0.0351457,0.00126378 0.0536535,0.00371654 0.0185079,0.00245669 0.0345591,0.00555512 0.0481299,0.00924016l-0.0166732 0.160984c-0.0370157,-0.0185079 -0.0795512,-0.0277441 -0.127646,-0.0277441 -0.0530748,0 -0.0977598,0.0218819 -0.134169,0.0656811 -0.0364016,0.0438031 -0.0545669,0.104539 -0.0545669,0.182256l0 0.432965 -0.153591 0 0 -0.810429zm0.778961 0.891823c0.00494488,0.051811 0.0262165,0.0965315 0.0638465,0.134161 0.0376299,0.0376339 0.0940748,0.0564488 0.169303,0.0564488 0.0419606,0 0.0786339,-0.0046378 0.110098,-0.0139094 0.0314606,-0.00923622 0.0573661,-0.0246417 0.0777165,-0.046252 0.0203504,-0.0215787 0.0354449,-0.0502441 0.0453307,-0.0860315 0.00985039,-0.0357598 0.0147953,-0.0801732 0.0147953,-0.133213l0 -0.122126c-0.0259055,0.0394685 -0.0626181,0.0709331 -0.110098,0.0943819 -0.0474803,0.0234173 -0.100213,0.0351457 -0.158193,0.0351457 -0.0554921,0 -0.107303,-0.0105 -0.155429,-0.0314646 -0.0480984,-0.0209646 -0.0897126,-0.0493228 -0.124894,-0.0851102 -0.0351417,-0.0357598 -0.0628858,-0.0783307 -0.0832717,-0.127654 -0.0203465,-0.0493543 -0.0305039,-0.103004 -0.0305039,-0.160984 0,-0.0592087 0.0101575,-0.114732 0.0305039,-0.166512 0.0203858,-0.051811 0.048437,-0.0965315 0.0841929,-0.134161 0.0357913,-0.0376299 0.0777165,-0.0672165 0.125846,-0.0888268 0.0480945,-0.0215787 0.0992913,-0.0323858 0.153555,-0.0323858 0.0555276,0 0.106382,0.0111142 0.152638,0.0333386 0.0462559,0.022189 0.0848071,0.0536496 0.115654,0.0943504l0 -0.11102 0.153591 0 0 0.775283c0,0.0678307 -0.00681496,0.128264 -0.0203819,0.181307 -0.0135709,0.0530315 -0.0363701,0.098063 -0.0684449,0.135079 -0.0320787,0.0370197 -0.074,0.0650709 -0.125811,0.0841929 -0.051811,0.019122 -0.115961,0.0286654 -0.192449,0.0286654 -0.115925,0 -0.205063,-0.0280512 -0.26737,-0.084189 -0.0622756,-0.0561102 -0.0971102,-0.132291 -0.104543,-0.228516l0.144319 0zm0.23315 -0.212764c0.0382441,0 0.0730827,-0.00709055 0.104543,-0.0212717 0.0314567,-0.0142126 0.0585945,-0.0336063 0.0814291,-0.0582835 0.0228031,-0.0246811 0.0403937,-0.0542992 0.0527323,-0.0888268 0.0123346,-0.0345315 0.0184764,-0.0721614 0.0184764,-0.112862 0,-0.043185 -0.00647638,-0.0820433 -0.0194291,-0.116575 -0.0129213,-0.0345236 -0.030815,-0.0641457 -0.0536535,-0.0888228 -0.0228031,-0.0246457 -0.049937,-0.0434606 -0.0813976,-0.0564173 -0.0314606,-0.0129488 -0.0656811,-0.0194291 -0.102701,-0.0194291 -0.0357559,0 -0.0693661,0.00740157 -0.100823,0.0221929 -0.0314646,0.0148307 -0.0589016,0.0348701 -0.0823543,0.0601299 -0.0234134,0.0252874 -0.0419252,0.0549094 -0.0554921,0.0888268 -0.0135669,0.0339134 -0.0203504,0.070622 -0.0203504,0.110094 0,0.0394724 0.00678346,0.0761811 0.0203504,0.110098 0.0135669,0.0339134 0.0320787,0.0635 0.0554921,0.0887953 0.0234528,0.0252913 0.0508898,0.0453346 0.0823543,0.0601654 0.0314567,0.0147874 0.0650669,0.022185 0.100823,0.022185zm0.679059 -0.679059l0.153591 0 0 0.431118c0,0.0357559 0.00245669,0.0694016 0.00740157,0.100831 0.00493701,0.0314567 0.0144803,0.0588937 0.0286654,0.0823465 0.0141772,0.0234567 0.0345591,0.0422362 0.0610787,0.0564488 0.0265157,0.0141811 0.0613543,0.0212677 0.104539,0.0212677 0.0419252,0 0.0758465,-0.00770079 0.101748,-0.0231457 0.0259055,-0.0154055 0.0456417,-0.0354488 0.0592087,-0.060122 0.013563,-0.0246811 0.0225276,-0.052122 0.0268228,-0.0823228 0.00433071,-0.0302323 0.00647638,-0.0601614 0.00647638,-0.089748l0 -0.436673 0.153594 0 0 0.425567c0,0.0518071 -0.00494488,0.101776 -0.0147953,0.14987 -0.00988583,0.0480945 -0.0280866,0.0909803 -0.0546024,0.12861 -0.0265236,0.0375945 -0.0628937,0.0675236 -0.109181,0.0897126 -0.046252,0.0222205 -0.105154,0.0333346 -0.176701,0.0333346 -0.0702874,0 -0.127961,-0.0111142 -0.172984,-0.0333346 -0.0450276,-0.022189 -0.0804803,-0.0508543 -0.106382,-0.0860354 -0.0259055,-0.0351417 -0.0437992,-0.0752283 -0.053685,-0.120252 -0.00985039,-0.0450315 -0.0147953,-0.0909764 -0.0147953,-0.137846l0 -0.449626zm1.46174 0.57728c0.0172795,0.0283937 0.0394724,0.0521142 0.0666024,0.0712362 0.0271299,0.019126 0.056752,0.0287008 0.0888307,0.0287008 0.035752,0 0.0641457,-0.015437 0.0851102,-0.046252 0.0209646,-0.0308504 0.0314606,-0.0715433 0.0314606,-0.12213l0 -1.01027 0.166512 0 0 0.997319c0,0.0468661 -0.00525197,0.0909764 -0.0157165,0.132291 -0.0104921,0.0413071 -0.0271299,0.0771024 -0.0499646,0.107331 -0.0228071,0.0302008 -0.0533465,0.0539606 -0.0915906,0.0712047 -0.0382441,0.0172835 -0.0851142,0.0259055 -0.140602,0.0259055 -0.0234528,0 -0.0469094,-0.00337008 -0.0703228,-0.0101575 -0.0234528,-0.00678346 -0.046252,-0.0163583 -0.0684764,-0.0286969 -0.0221929,-0.0123031 -0.0428504,-0.0268268 -0.0619724,-0.0434606 -0.019122,-0.0166654 -0.0360945,-0.0348661 -0.0508858,-0.0546024l0.111016 -0.118417zm0.810425 -0.801154c-0.0308465,0 -0.0570591,-0.0108071 -0.0786339,-0.0323819 -0.0216102,-0.0215787 -0.0323819,-0.0477874 -0.0323819,-0.0786378 0,-0.0308465 0.0107717,-0.0570591 0.0323819,-0.0786378 0.0215748,-0.0216102 0.0477874,-0.032378 0.0786339,-0.032378 0.0308465,0 0.0570591,0.0107677 0.0786378,0.032378 0.0215748,0.0215787 0.0323819,0.0477913 0.0323819,0.0786378 0,0.0308504 -0.0108071,0.0570591 -0.0323819,0.0786378 -0.0215787,0.0215748 -0.0477913,0.0323819 -0.0786378,0.0323819zm-0.075874 0.223874l0.153591 0 0 0.810429 -0.153591 0 0 -0.810429zm0.431118 0l0.153591 0 0 0.431118c0,0.0357559 0.00245669,0.0694016 0.00739764,0.100831 0.00494488,0.0314567 0.0144882,0.0588937 0.0286654,0.0823465 0.0141811,0.0234567 0.034563,0.0422362 0.0610827,0.0564488 0.0265197,0.0141811 0.0613504,0.0212677 0.104543,0.0212677 0.0419252,0 0.0758386,-0.00770079 0.101748,-0.0231457 0.0259016,-0.0154055 0.0456378,-0.0354488 0.0592008,-0.060122 0.0135669,-0.0246811 0.0225315,-0.052122 0.0268307,-0.0823228 0.00432677,-0.0302323 0.00647244,-0.0601614 0.00647244,-0.089748l0 -0.436673 0.153591 0 0 0.425567c0,0.0518071 -0.00493701,0.101776 -0.0147874,0.14987 -0.00988583,0.0480945 -0.0280866,0.0909803 -0.0546102,0.12861 -0.0265197,0.0375945 -0.0628858,0.0675236 -0.109173,0.0897126 -0.0462598,0.0222205 -0.105161,0.0333346 -0.176705,0.0333346 -0.0702835,0 -0.127957,-0.0111142 -0.172984,-0.0333346 -0.0450315,-0.022189 -0.0804764,-0.0508543 -0.106382,-0.0860354 -0.0259094,-0.0351417 -0.0438031,-0.0752283 -0.053689,-0.120252 -0.00985039,-0.0450315 -0.0147913,-0.0909764 -0.0147913,-0.137846l0 -0.449626z"/>
   <path id="_74696568" class="fil0" d="M18.542 10.2345c-0.0497992,0 -0.0926811,-0.018 -0.128638,-0.0539606 -0.0359961,-0.0359646 -0.0539606,-0.078874 -0.0539606,-0.128673 0,-0.0498031 0.0179646,-0.0926811 0.0539606,-0.128642 0.0359567,-0.0359606 0.0788386,-0.0539567 0.128638,-0.0539567 0.0498031,0 0.0926811,0.0179961 0.128642,0.0539567 0.0359567,0.0359606 0.0539567,0.0788386 0.0539567,0.128642 0,0.0497992 -0.018,0.0927087 -0.0539567,0.128673 -0.0359606,0.0359606 -0.0788386,0.0539606 -0.128642,0.0539606z"/>
  </g>
 </g>
</svg>
